<svg xmlns="http://www.w3.org/2000/svg" version="1.1" xmlns:xlink="http://www.w3.org/1999/xlink" xmlns:svgjs="http://svgjs.com/svgjs" width="1920" height="1024" preserveAspectRatio="none" viewBox="0 0 1920 1024"><g mask="url(&quot;#SvgjsMask1171&quot;)" fill="none"><rect width="1920" height="1024" x="0" y="0" fill="rgba(23, 24, 26, 1)"></rect><path d="M6 1024L1030 0L1139.5 0L115.5 1024z" fill="url(#SvgjsLinearGradient1172)"></path><path d="M718.6 1024L1742.6 0L2132.6 0L1108.6 1024z" fill="url(#SvgjsLinearGradient1172)"></path><path d="M1838 1024L814 0L674.5 0L1698.5 1024z" fill="url(#SvgjsLinearGradient1173)"></path><path d="M1191.4 1024L167.4000000000001 0L5.400000000000091 0L1029.4 1024z" fill="url(#SvgjsLinearGradient1173)"></path><path d="M1198.6197648223524 1024L1920 302.6197648223524L1920 1024z" fill="url(#SvgjsLinearGradient1172)"></path><path d="M0 1024L721.3802351776476 1024L 0 302.6197648223524z" fill="url(#SvgjsLinearGradient1173)"></path></g><defs><mask id="SvgjsMask1171"><rect width="1920" height="1024" fill="#ffffff"></rect></mask><linearGradient x1="0%" y1="100%" x2="100%" y2="0%" id="SvgjsLinearGradient1172"><stop stop-color="rgba(15, 70, 185, 0.2)" offset="0"></stop><stop stop-opacity="0" stop-color="rgba(15, 70, 185, 0.2)" offset="0.66"></stop></linearGradient><linearGradient x1="100%" y1="100%" x2="0%" y2="0%" id="SvgjsLinearGradient1173"><stop stop-color="rgba(15, 70, 185, 0.2)" offset="0"></stop><stop stop-opacity="0" stop-color="rgba(15, 70, 185, 0.2)" offset="0.66"></stop></linearGradient></defs></svg>